<?xml version="1.0" standalone="no"?>
<!DOCTYPE svg PUBLIC "-//W3C//DTD SVG 20010904//EN"
 "http://www.w3.org/TR/2001/REC-SVG-20010904/DTD/svg10.dtd">
<svg version="1.0" xmlns="http://www.w3.org/2000/svg"
 width="512.000000pt" height="512.000000pt" viewBox="0 0 512.000000 512.000000"
 preserveAspectRatio="xMidYMid meet">

<g transform="translate(0.000000,512.000000) scale(0.100000,-0.100000)"
fill="#000000" stroke="none">
<path d="M1318 3793 c-995 -995 -1203 -1208 -1230 -1258 -31 -56 -33 -66 -33
-160 0 -87 3 -107 27 -157 34 -73 98 -137 174 -174 52 -25 70 -29 149 -29 129
0 177 25 316 162 99 97 108 104 113 82 3 -13 42 -260 86 -549 44 -289 83 -537
86 -552 l6 -28 -69 0 c-122 0 -244 -47 -335 -129 -48 -43 -49 -43 -93 -32 -98
25 -222 7 -311 -45 -61 -36 -131 -116 -165 -188 -118 -253 59 -571 337 -607
90 -11 4278 -11 4368 0 279 36 455 355 337 608 -34 71 -104 151 -165 187 -88
52 -213 70 -311 45 -44 -11 -44 -11 -97 35 -93 82 -208 126 -331 126 l-69 0 6
27 c3 16 42 264 86 553 44 289 82 536 86 549 5 22 14 15 113 -82 139 -138 187
-162 316 -162 76 0 99 5 147 27 72 34 142 103 176 176 23 49 27 70 27 152 0
164 11 150 -517 677 -286 285 -463 454 -479 458 -38 9 -95 -18 -114 -55 -34
-65 -36 -62 450 -550 489 -491 477 -476 461 -565 -14 -75 -100 -132 -180 -120
-38 6 -107 73 -1056 1020 -692 691 -1024 1016 -1042 1020 -16 4 -40 4 -56 0
-18 -4 -350 -329 -1042 -1020 -967 -965 -1017 -1013 -1058 -1020 -34 -5 -52
-2 -89 17 -26 12 -55 35 -66 49 -24 33 -32 98 -18 140 8 25 320 343 1156 1179
l1145 1145 392 -391 c216 -216 403 -397 415 -403 67 -34 143 19 143 100 0 31
-37 71 -453 486 l-452 453 -45 0 -45 0 -1197 -1197z m2021 -557 l775 -775
-165 -1068 -165 -1068 -276 -3 -277 -2 -4 492 c-4 550 -2 534 -77 686 -61 122
-163 223 -290 286 -204 100 -396 100 -600 0 -123 -61 -226 -161 -287 -279 -77
-150 -76 -140 -80 -693 l-4 -492 -277 2 -277 3 -164 1068 -165 1068 775 775
c426 426 776 774 779 774 3 0 353 -348 779 -774z m-654 -1598 c141 -36 270
-161 315 -306 19 -60 20 -94 20 -523 l0 -459 -460 0 -460 0 0 459 c0 423 2
464 19 520 74 238 318 372 566 309z m-1649 -721 c5 -4 93 -553 94 -579 0 -5
-171 -8 -380 -8 -359 0 -383 1 -419 20 -71 36 -131 134 -131 213 0 162 173
267 314 192 81 -43 138 -28 185 49 50 80 155 129 264 123 37 -3 70 -7 73 -10z
m3266 -14 c25 -12 63 -39 83 -61 20 -22 52 -56 70 -76 41 -44 78 -47 149 -11
146 74 316 -30 316 -192 0 -79 -60 -177 -131 -213 -36 -19 -60 -20 -419 -20
-230 0 -380 4 -380 9 0 12 78 517 86 553 3 17 13 29 27 32 47 10 153 -2 199
-21z"/>
<path d="M2288 3373 c-38 -24 -48 -53 -48 -138 0 -86 13 -121 51 -141 45 -23
78 -17 115 20 33 33 34 35 34 121 0 86 -1 88 -34 121 -38 38 -75 44 -118 17z"/>
<path d="M2714 3356 c-33 -33 -34 -35 -34 -121 0 -86 1 -88 34 -121 37 -37 70
-43 115 -20 38 20 51 55 51 142 0 84 -16 125 -57 143 -42 19 -73 13 -109 -23z"/>
<path d="M1909 3012 c-52 -46 -37 -121 39 -204 20 -22 35 -28 67 -28 52 0 82
21 96 69 10 35 9 43 -17 91 -55 101 -123 128 -185 72z"/>
<path d="M3082 3015 c-44 -37 -87 -124 -78 -159 17 -70 103 -100 159 -56 40
31 77 103 77 148 0 80 -95 120 -158 67z"/>
<path d="M2481 2910 c-54 -25 -320 -237 -349 -277 -42 -59 -57 -114 -57 -208
0 -72 5 -100 22 -138 33 -72 75 -120 135 -153 47 -26 62 -29 133 -28 61 1 94
7 138 26 l59 25 61 -26 c83 -34 192 -36 254 -3 57 30 108 84 141 151 24 49 27
67 27 151 -1 85 -4 101 -30 154 -18 36 -49 75 -80 102 -123 104 -253 205 -285
221 -54 26 -118 27 -169 3z m212 -285 c80 -63 132 -112 143 -134 32 -66 1
-164 -59 -185 -20 -8 -42 -3 -97 19 -45 18 -90 29 -120 29 -30 0 -75 -11 -120
-29 -80 -32 -109 -29 -143 17 -28 38 -33 114 -10 155 16 29 260 234 274 230 3
-1 62 -47 132 -102z"/>
<path d="M3675 3808 c-33 -17 -45 -40 -45 -80 0 -95 99 -140 167 -76 45 42 35
130 -16 158 -25 13 -81 12 -106 -2z"/>
</g>
</svg>
