<?xml version="1.0" standalone="no"?>
<!DOCTYPE svg PUBLIC "-//W3C//DTD SVG 20010904//EN"
 "http://www.w3.org/TR/2001/REC-SVG-20010904/DTD/svg10.dtd">
<svg version="1.0" xmlns="http://www.w3.org/2000/svg"
 width="512.000000pt" height="512.000000pt" viewBox="0 0 512.000000 512.000000"
 preserveAspectRatio="xMidYMid meet">
<metadata>
Created by potrace 1.16, written by Peter Selinger 2001-2019
</metadata>
<g transform="translate(0.000000,512.000000) scale(0.100000,-0.100000)"
fill="#000000" stroke="none">
<path d="M2254 5112 c-6 -4 -145 -194 -309 -422 -163 -228 -301 -419 -306
-424 -5 -6 -65 46 -146 125 -149 145 -222 192 -348 224 -68 17 -211 20 -252 4
-80 -30 -143 -100 -166 -187 -9 -31 -27 -62 -56 -91 -67 -69 -103 -154 -109
-262 -6 -106 6 -129 67 -129 31 0 45 8 91 56 30 31 77 67 103 80 46 24 53 25
128 16 85 -11 118 -26 146 -69 15 -23 19 -59 24 -218 5 -178 7 -196 36 -280
74 -216 210 -373 408 -471 110 -54 178 -72 315 -83 111 -10 145 -19 193 -53
16 -12 117 -131 224 -265 l194 -243 419 0 419 0 15 22 c33 47 22 75 -66 164
-45 46 -90 86 -100 90 -34 11 -68 -5 -84 -40 -15 -30 -15 -35 0 -64 l17 -32
-273 0 -273 1 -183 230 c-233 293 -269 318 -482 334 -105 7 -187 28 -264 66
-165 82 -287 222 -342 393 -23 71 -27 104 -33 271 -6 186 -7 191 -36 243 -47
87 -108 126 -218 142 -93 14 -142 59 -141 131 3 90 76 131 197 111 136 -23
179 -52 413 -284 182 -180 215 -208 242 -208 23 0 199 108 739 454 389 249
710 452 712 450 2 -2 -11 -26 -29 -54 -34 -53 -92 -106 -147 -134 -55 -27 -69
-80 -33 -116 28 -28 62 -25 142 12 37 17 71 29 74 25 3 -3 -2 -20 -12 -39 -29
-58 -86 -119 -143 -155 -67 -43 -81 -58 -81 -94 0 -33 37 -66 86 -75 19 -3 36
-10 39 -14 7 -11 -142 -119 -241 -175 -45 -25 -238 -110 -430 -190 -192 -79
-354 -152 -361 -162 -29 -39 -16 -64 90 -170 110 -110 131 -120 182 -87 19 12
25 25 25 52 0 30 -9 45 -52 89 -51 52 -51 52 -27 62 53 20 487 201 539 224
138 62 318 184 438 297 47 45 62 66 62 87 0 29 -24 73 -40 73 -5 0 -21 5 -35
10 l-27 10 34 43 c56 68 87 129 108 212 27 104 26 147 -3 181 l-23 26 19 56
c10 31 21 86 24 122 5 60 3 70 -16 89 -46 46 -62 39 -463 -218 l-373 -239 -6
71 c-8 90 -34 156 -65 168 -19 6 -24 16 -24 41 0 48 -25 143 -44 173 -13 19
-25 25 -54 25 -20 0 -42 -4 -48 -8z m-9 -284 c-10 -46 -42 -108 -73 -140 -48
-51 -23 -128 42 -128 23 0 43 12 84 53 l54 52 -6 -40 c-17 -99 -6 -90 -298
-276 -325 -209 -303 -195 -292 -176 15 24 489 686 492 687 2 0 0 -15 -3 -32z"/>
<path d="M119 3232 c-42 -21 -61 -40 -86 -82 -60 -99 -59 -101 148 -738 100
-306 192 -581 205 -610 61 -138 205 -299 339 -380 37 -22 182 -85 321 -139
l254 -98 0 -302 0 -303 -108 0 c-160 0 -152 16 -152 -291 0 -205 3 -248 16
-267 l15 -22 670 0 c656 0 669 0 689 20 19 19 20 33 20 264 0 311 7 296 -151
296 l-109 0 0 493 c0 541 -2 563 -61 679 -42 83 -136 176 -219 216 -36 18
-110 42 -165 53 -64 13 -131 36 -185 62 -76 37 -102 58 -255 208 -106 103
-186 174 -211 184 -92 40 -225 17 -305 -53 l-34 -30 -150 366 c-83 201 -163
385 -178 408 -61 93 -200 122 -308 66z m160 -126 c33 -18 36 -23 237 -518
l149 -368 300 -300 c217 -216 307 -300 323 -300 32 0 72 43 72 77 0 22 -47 74
-265 293 l-265 266 37 36 c64 62 123 73 183 37 19 -12 95 -82 169 -156 196
-196 285 -250 483 -292 53 -11 115 -29 139 -41 63 -33 132 -102 165 -167 l29
-58 3 -517 3 -518 -301 0 -300 0 0 343 c0 324 -1 345 -19 361 -10 9 -138 64
-284 121 -310 121 -325 128 -408 195 -81 65 -149 146 -192 229 -33 63 -397
1166 -397 1200 1 41 51 90 93 91 10 0 31 -6 46 -14z"/>
<path d="M4785 3241 c-89 -41 -92 -46 -290 -533 l-129 -316 -35 30 c-57 50
-117 72 -196 72 -102 -1 -135 -22 -326 -209 -150 -147 -175 -167 -250 -203
-46 -23 -112 -46 -147 -53 -93 -18 -126 -66 -81 -123 24 -31 61 -34 151 -11
152 40 240 98 442 295 87 85 165 152 180 156 46 11 96 -5 142 -48 l45 -41
-265 -267 c-219 -219 -266 -271 -266 -293 0 -34 40 -77 72 -77 16 0 106 84
323 300 l300 300 149 368 c203 498 206 506 244 521 54 23 114 -7 128 -64 8
-33 -343 -1121 -393 -1216 -60 -116 -174 -234 -285 -294 -28 -15 -170 -74
-316 -131 -146 -57 -274 -111 -284 -121 -17 -15 -18 -39 -18 -360 l0 -343
-300 0 -300 0 0 465 c0 319 -3 472 -11 488 -23 50 -87 61 -118 21 -21 -26 -21
-36 -21 -500 l0 -474 -109 0 c-158 0 -151 15 -151 -296 0 -231 1 -245 20 -264
20 -20 33 -20 689 -20 l670 0 15 22 c13 19 16 62 16 268 0 306 9 290 -153 290
l-107 0 0 303 0 302 247 95 c135 52 279 114 320 138 138 80 284 242 347 384
13 29 105 304 205 610 152 466 181 566 181 615 -1 137 -97 233 -235 233 -37 0
-75 -7 -100 -19z"/>
<path d="M2586 3185 c-31 -47 -21 -72 60 -155 91 -94 119 -108 163 -86 32 17
47 51 37 84 -4 10 -44 55 -90 100 -72 71 -88 82 -119 82 -26 0 -39 -6 -51 -25z"/>
</g>
</svg>
