<?xml version="1.0" standalone="no"?>
<!DOCTYPE svg PUBLIC "-//W3C//DTD SVG 20010904//EN"
 "http://www.w3.org/TR/2001/REC-SVG-20010904/DTD/svg10.dtd">
<svg version="1.0" xmlns="http://www.w3.org/2000/svg"
 width="512.000000pt" height="512.000000pt" viewBox="0 0 512.000000 512.000000"
 preserveAspectRatio="xMidYMid meet">
<metadata>
Created by potrace 1.16, written by Peter Selinger 2001-2019
</metadata>
<g transform="translate(0.000000,512.000000) scale(0.100000,-0.100000)"
fill="#000000" stroke="none">
<path d="M235 5108 c-52 -19 -133 -78 -165 -121 -52 -71 -73 -141 -68 -232 5
-91 25 -138 103 -245 58 -79 237 -258 324 -322 94 -71 114 -68 241 37 158 131
312 311 361 421 30 66 30 177 1 254 -29 75 -96 149 -168 185 -80 41 -198 47
-283 16 l-57 -21 -52 20 c-58 22 -185 26 -237 8z m161 -203 c20 -8 49 -26 66
-40 42 -36 84 -33 144 10 64 46 100 52 157 27 49 -22 87 -77 87 -127 0 -62
-112 -210 -257 -340 -50 -45 -66 -54 -80 -46 -29 16 -220 212 -258 265 -47 67
-59 105 -46 153 16 58 78 110 134 112 10 1 34 -6 53 -14z"/>
<path d="M4299 4565 c-130 -47 -216 -160 -234 -305 -14 -117 56 -249 224 -423
87 -90 217 -204 258 -226 63 -33 131 8 314 189 110 109 183 200 227 285 23 44
27 62 27 145 0 82 -4 103 -27 152 -31 68 -96 133 -164 168 -70 35 -193 40
-273 11 l-57 -21 -52 20 c-61 23 -187 26 -243 5z m215 -230 c62 -42 102 -45
144 -10 45 38 100 58 139 50 47 -9 101 -59 113 -107 14 -51 1 -91 -51 -161
-44 -58 -224 -243 -252 -258 -14 -8 -30 1 -83 48 -139 123 -254 275 -254 338
0 48 38 105 83 126 55 26 96 19 161 -26z"/>
<path d="M1855 4436 c-62 -15 -108 -39 -162 -83 -46 -38 -98 -112 -108 -155
-4 -16 -10 -28 -13 -28 -3 0 -30 12 -61 27 -50 24 -68 27 -161 28 -97 0 -110
-2 -170 -31 -83 -39 -155 -111 -194 -194 -28 -59 -31 -74 -31 -165 0 -91 3
-106 30 -161 l30 -61 -59 -28 c-197 -92 -280 -344 -178 -539 15 -28 28 -54 30
-57 1 -4 -22 -18 -53 -33 -74 -37 -142 -107 -179 -186 -29 -60 -31 -73 -31
-170 0 -98 2 -109 32 -170 17 -36 49 -85 71 -110 l40 -44 -54 -77 c-137 -195
-203 -435 -204 -739 l0 -64 -215 -216 -215 -217 0 -50 c0 -69 33 -103 99 -103
l46 0 237 238 c130 130 241 247 247 259 7 13 11 82 11 171 0 263 43 420 165
608 23 34 173 194 355 376 270 272 320 318 351 323 68 12 129 -38 129 -107 0
-33 -10 -48 -90 -133 -83 -88 -90 -99 -90 -136 0 -73 78 -121 143 -88 12 6
137 125 277 265 229 228 259 254 288 254 59 0 107 -39 113 -90 6 -54 -5 -67
-260 -324 -275 -278 -283 -289 -255 -354 16 -39 70 -66 112 -56 18 4 141 120
363 340 327 326 337 334 375 334 71 0 122 -60 109 -129 -6 -31 -56 -86 -341
-372 -358 -360 -353 -353 -319 -419 19 -37 43 -50 91 -50 36 0 50 13 298 259
282 279 291 286 360 257 44 -18 71 -71 60 -120 -5 -24 -91 -117 -370 -397
-264 -265 -364 -372 -366 -390 -5 -84 27 -141 91 -160 51 -15 69 -8 215 80
125 75 154 83 206 56 59 -31 76 -119 33 -168 -22 -24 -532 -366 -593 -397
-146 -74 -289 -100 -557 -100 -129 0 -212 -4 -226 -11 -12 -6 -129 -117 -260
-247 l-237 -237 0 -46 c0 -37 5 -52 26 -73 31 -30 88 -35 132 -12 15 8 117
105 227 215 l200 201 125 0 c362 1 561 52 796 205 l87 56 86 -35 c194 -79 335
-105 616 -113 l210 -5 260 -259 c174 -173 270 -262 290 -268 72 -20 146 46
130 117 -4 20 -92 115 -290 312 -156 156 -292 289 -302 294 -11 7 -122 13
-273 17 -188 4 -275 10 -330 23 -90 21 -172 46 -183 56 -4 4 29 31 75 61 168
110 224 197 216 335 -6 89 -36 151 -104 213 -51 47 -126 81 -176 81 -16 0 -28
3 -28 7 0 4 98 107 219 228 197 198 221 226 240 278 27 74 27 141 0 214 -24
64 -93 144 -140 163 -22 9 -28 17 -23 29 40 95 45 172 13 255 -24 64 -87 134
-150 167 -64 32 -177 38 -246 11 l-52 -20 -11 28 c-15 37 -86 104 -140 132
-65 33 -167 37 -243 8 -46 -17 -79 -42 -157 -116 -87 -84 -99 -92 -105 -74 -4
11 -29 43 -57 70 -125 123 -301 120 -439 -8 l-60 -55 -135 134 c-154 154 -179
193 -172 274 6 70 39 118 102 150 107 54 150 34 337 -150 127 -125 151 -145
178 -145 86 0 139 84 95 150 -9 14 -119 129 -245 255 -125 127 -233 244 -239
260 -16 42 -14 118 4 153 22 43 80 90 127 102 44 12 86 7 134 -17 17 -9 210
-195 430 -414 395 -393 401 -399 441 -399 64 0 112 58 98 118 -4 17 -117 138
-314 337 -276 279 -308 315 -319 356 -30 111 43 224 153 236 93 11 108 2 256
-142 161 -158 191 -171 263 -114 22 17 27 29 27 66 0 46 -1 47 -137 185 -76
77 -157 150 -180 163 -85 50 -198 66 -298 41z m-813 -1682 c76 -54 78 -49 -69
-196 l-132 -132 -32 29 c-105 99 -83 250 46 320 47 25 135 16 187 -21z"/>
<path d="M2565 3906 c-17 -7 -36 -25 -43 -40 -43 -95 32 -178 125 -141 67 27
84 102 36 154 -33 35 -77 45 -118 27z"/>
<path d="M3442 3894 c-182 -49 -305 -228 -289 -422 l5 -64 -137 136 c-133 131
-139 136 -180 136 -32 0 -47 -6 -66 -26 -32 -35 -41 -84 -22 -120 26 -49 588
-601 629 -619 97 -40 215 55 193 155 -4 16 -52 105 -108 197 -94 156 -102 172
-105 229 -8 120 69 204 187 204 61 0 97 -13 135 -48 49 -46 526 -770 573 -869
99 -212 123 -353 123 -730 0 -172 4 -293 10 -310 15 -38 287 -311 328 -329 30
-13 37 -13 77 5 35 15 46 26 53 53 15 58 -2 86 -133 218 l-125 125 0 233 c0
401 -33 580 -155 837 -61 130 -529 838 -602 910 -100 100 -248 138 -391 99z"/>
<path d="M3472 2478 c-83 -58 -165 -197 -185 -313 -23 -132 23 -289 114 -389
39 -43 49 -49 88 -50 37 -1 47 4 72 32 41 45 38 81 -11 149 -52 73 -74 141
-67 208 7 66 33 118 97 191 42 48 50 64 50 96 0 83 -87 125 -158 76z"/>
<path d="M4973 1328 c-22 -11 -53 -64 -53 -92 0 -29 33 -84 57 -95 33 -15 59
-14 93 4 37 19 50 43 50 90 0 47 -13 71 -50 90 -33 17 -65 18 -97 3z"/>
</g>
</svg>
