<?xml version="1.0" standalone="no"?>
<!DOCTYPE svg PUBLIC "-//W3C//DTD SVG 20010904//EN"
 "http://www.w3.org/TR/2001/REC-SVG-20010904/DTD/svg10.dtd">
<svg version="1.0" xmlns="http://www.w3.org/2000/svg"
 width="512.000000pt" height="512.000000pt" viewBox="0 0 512.000000 512.000000"
 preserveAspectRatio="xMidYMid meet">

<g transform="translate(0.000000,512.000000) scale(0.100000,-0.100000)"
fill="#000000" stroke="none">
<path d="M3385 5107 c-94 -32 -170 -96 -201 -172 -15 -35 -27 -48 -64 -64 -91
-42 -150 -107 -183 -205 -23 -66 -23 -413 -2 -566 35 -244 118 -458 258 -664
86 -127 275 -315 402 -398 94 -62 226 -133 295 -156 l30 -11 0 -565 0 -565
-35 -35 c-63 -63 -145 -56 -199 17 -20 27 -21 44 -26 355 -5 326 -5 327 -31
382 -37 80 -81 125 -157 162 -59 29 -76 33 -147 33 -61 -1 -92 -6 -130 -23
-68 -31 -138 -102 -172 -176 l-28 -61 -3 -501 -3 -502 -59 -21 c-157 -57 -276
-189 -320 -352 -17 -62 -13 -191 7 -256 54 -175 188 -302 368 -348 201 -51
431 49 538 233 48 84 68 160 68 255 -2 231 -148 417 -378 483 -10 3 -13 110
-13 495 0 481 0 491 21 520 40 56 102 73 164 43 70 -33 69 -32 75 -399 l5
-330 26 -56 c81 -172 287 -246 453 -162 47 24 116 94 141 144 41 79 45 146 45
701 l0 528 107 50 c168 79 291 167 428 304 133 134 217 248 293 402 125 251
166 460 160 819 -3 210 -3 210 -33 269 -33 66 -96 126 -164 157 -37 16 -51 29
-61 57 -19 53 -102 136 -163 163 -39 18 -71 23 -127 24 -65 0 -84 -4 -142 -33
-105 -52 -166 -141 -175 -256 -11 -132 52 -245 171 -306 61 -31 78 -35 145
-35 99 1 163 28 228 99 26 29 53 61 60 71 12 19 13 19 32 -5 31 -38 34 -72 28
-308 -4 -164 -10 -239 -25 -307 -71 -322 -246 -599 -501 -791 -108 -81 -319
-189 -371 -189 -52 0 -263 108 -371 189 -255 192 -429 468 -501 791 -16 71
-21 140 -25 325 -4 217 -3 238 15 269 25 46 38 49 57 12 23 -46 79 -98 138
-128 75 -39 188 -39 268 -2 117 55 184 160 184 289 0 129 -67 235 -183 288
-65 29 -160 38 -217 19z m155 -216 c14 -10 31 -36 39 -58 13 -36 12 -43 -5
-79 -27 -55 -81 -81 -134 -65 -72 21 -105 93 -73 159 33 68 112 88 173 43z
m1100 0 c14 -10 31 -34 37 -54 39 -116 -104 -204 -190 -118 -27 27 -32 39 -32
81 0 40 5 54 29 79 43 45 105 50 156 12z m-1420 -3721 c105 -52 160 -134 168
-246 6 -93 -15 -158 -73 -222 -118 -131 -322 -131 -440 0 -58 64 -79 129 -73
222 3 44 13 86 26 111 35 68 111 130 192 156 44 15 152 4 200 -21z"/>
<path d="M3054 991 c-56 -24 -73 -113 -30 -156 32 -32 69 -40 107 -25 90 38
75 173 -21 185 -19 3 -45 1 -56 -4z"/>
<path d="M205 3382 c-99 -34 -174 -117 -195 -215 -8 -37 -10 -467 -8 -1497 l3
-1445 21 -46 c28 -60 93 -125 153 -153 l46 -21 2065 0 2065 0 46 21 c60 28
125 93 153 153 l21 46 0 1277 0 1278 -28 27 c-38 38 -96 38 -134 0 l-28 -27
-5 -1260 -5 -1260 -28 -27 c-26 -26 -34 -28 -127 -31 l-100 -4 0 246 0 246
-29 32 c-24 27 -36 33 -71 33 -35 0 -47 -6 -71 -33 l-29 -32 0 -245 0 -245
-1830 2 -1830 3 -27 28 -28 27 0 1440 0 1440 28 27 27 28 1080 5 1080 5 26 26
c47 47 29 136 -32 159 -16 6 -438 10 -1092 10 -985 -1 -1071 -2 -1117 -18z"/>
<path d="M2780 3387 c-38 -18 -63 -77 -50 -113 16 -42 39 -63 75 -70 111 -21
159 133 58 185 -28 14 -52 14 -83 -2z"/>
<path d="M982 2510 c-215 -57 -407 -240 -474 -453 -36 -114 -41 -242 -13 -348
7 -26 6 -27 -61 -31 -60 -4 -70 -7 -95 -36 -31 -35 -36 -66 -17 -107 20 -43
56 -55 171 -55 l104 0 38 -57 c121 -182 419 -498 675 -714 259 -219 252 -217
387 -107 443 359 771 719 892 979 72 153 86 257 55 407 -63 313 -339 541 -652
542 -141 0 -243 -32 -398 -125 l-31 -18 -47 32 c-147 101 -357 137 -534 91z
m271 -195 c80 -21 146 -56 212 -114 82 -72 121 -72 202 -1 92 80 212 129 318
130 108 0 240 -57 326 -142 112 -111 167 -281 134 -415 -55 -217 -333 -550
-768 -922 l-109 -92 -56 48 c-232 194 -464 421 -590 575 -34 42 -62 78 -62 81
0 2 42 6 93 9 51 3 103 10 115 17 24 13 54 68 98 180 22 58 30 69 36 55 157
-374 242 -565 261 -586 27 -30 76 -37 120 -17 14 6 67 78 131 180 l108 169 72
0 c100 0 142 9 171 35 46 43 45 107 -2 151 -25 23 -31 24 -177 24 -124 0 -156
-3 -175 -16 -13 -9 -54 -64 -91 -121 -37 -58 -70 -101 -73 -97 -2 5 -62 144
-132 308 -69 164 -133 309 -141 322 -31 46 -106 52 -151 12 -11 -11 -56 -107
-100 -214 l-78 -194 -111 0 -112 0 -17 43 c-38 93 -26 237 30 346 95 188 324
297 518 246z"/>
<path d="M3984 1081 c-30 -13 -64 -59 -64 -88 0 -54 48 -103 100 -103 53 0
100 49 100 104 0 56 -83 109 -136 87z"/>
</g>
</svg>
